<?xml version="1.0" encoding="UTF-8" standalone="no"?>
<!-- Generator: Adobe Illustrator 18.0.0, SVG Export Plug-In . SVG Version: 6.00 Build 0)  -->

<svg
   xmlns:dc="http://purl.org/dc/elements/1.1/"
   xmlns:cc="http://creativecommons.org/ns#"
   xmlns:rdf="http://www.w3.org/1999/02/22-rdf-syntax-ns#"
   xmlns:svg="http://www.w3.org/2000/svg"
   xmlns="http://www.w3.org/2000/svg"
   xmlns:sodipodi="http://sodipodi.sourceforge.net/DTD/sodipodi-0.dtd"
   xmlns:inkscape="http://www.inkscape.org/namespaces/inkscape"
   version="1.1"
   id="Capa_1"
   x="0px"
   y="0px"
   viewBox="0 0 297.774 297.774"
   xml:space="preserve"
   sodipodi:docname="commerce.svg"
   width="297.77399"
   height="297.77399"
   inkscape:version="0.92.2 5c3e80d, 2017-08-06"><metadata
     id="metadata3829"><rdf:RDF><cc:Work
         rdf:about=""><dc:format>image/svg+xml</dc:format><dc:type
           rdf:resource="http://purl.org/dc/dcmitype/StillImage" /><dc:title></dc:title></cc:Work></rdf:RDF></metadata><defs
     id="defs3827" /><sodipodi:namedview
     pagecolor="#ffffff"
     bordercolor="#666666"
     borderopacity="1"
     objecttolerance="10"
     gridtolerance="10"
     guidetolerance="10"
     inkscape:pageopacity="0"
     inkscape:pageshadow="2"
     inkscape:window-width="1587"
     inkscape:window-height="1008"
     id="namedview3825"
     showgrid="false"
     inkscape:snap-bbox="true"
     inkscape:zoom="1.9875"
     inkscape:cx="87.967146"
     inkscape:cy="180.06242"
     inkscape:window-x="42"
     inkscape:window-y="0"
     inkscape:window-maximized="0"
     inkscape:current-layer="g3792" /><g
     id="g3792"><g
       id="g4649"
       transform="translate(1.184082e-4,5.3294683e-4)"><path
         style="fill:#e02417;fill-opacity:1"
         sodipodi:nodetypes="sssss"
         inkscape:connector-curvature="0"
         id="path3788"
         d="m 148.887,54.553 c -52.016,0 -94.333,42.318 -94.333,94.334 0,52.016 42.317,94.333 94.333,94.333 52.016,0 94.334,-42.317 94.334,-94.333 0,-52.016 -42.318,-94.334 -94.334,-94.334 z" /><path
         style="fill:#e02417;fill-opacity:1"
         inkscape:connector-curvature="0"
         id="path3790"
         d="M 290.904,131.693 275.259,115.24 c -3.406,-3.582 -5.009,-8.513 -4.358,-13.413 l 2.987,-22.505 c 1.748,-13.178 -7.142,-25.411 -20.213,-27.82 l -22.329,-4.115 c -4.861,-0.896 -9.056,-3.942 -11.41,-8.289 L 209.125,19.135 C 202.794,7.447 188.411,2.775 176.42,8.509 l -20.481,9.796 c -4.459,2.133 -9.645,2.133 -14.104,0 L 121.354,8.509 C 109.363,2.774 94.98,7.447 88.649,19.135 L 77.837,39.098 c -2.354,4.347 -6.55,7.394 -11.41,8.289 l -22.329,4.114 c -13.07,2.41 -21.96,14.644 -20.212,27.821 l 2.987,22.505 c 0.649,4.9 -0.952,9.831 -4.359,13.413 L 6.869,131.693 c -9.159,9.632 -9.159,24.753 0,34.387 l 15.646,16.454 c 3.406,3.581 5.008,8.512 4.358,13.411 l -2.987,22.507 c -1.748,13.178 7.142,25.41 20.212,27.82 l 22.33,4.115 c 4.859,0.896 9.056,3.942 11.409,8.289 l 10.812,19.962 c 6.331,11.688 20.714,16.36 32.703,10.627 l 20.483,-9.796 c 4.459,-2.133 9.645,-2.133 14.104,0 l 20.482,9.796 c 11.99,5.733 26.373,1.06 32.704,-10.627 l 10.811,-19.962 c 2.354,-4.347 6.549,-7.394 11.41,-8.289 l 22.33,-4.115 c 13.07,-2.41 21.96,-14.643 20.212,-27.82 l -2.987,-22.507 c -0.65,-4.899 0.952,-9.83 4.357,-13.411 l 15.646,-16.454 c 9.16,-9.634 9.16,-24.755 0,-34.387 z M 148.887,262.996 c -63.021,0 -114.11,-51.088 -114.11,-114.109 0,-63.021 51.089,-114.109 114.11,-114.109 63.021,0 114.109,51.089 114.109,114.109 0,63.021 -51.088,114.109 -114.109,114.109 z" /></g></g><g
     id="g3794" /><g
     id="g3796" /><g
     id="g3798" /><g
     id="g3800" /><g
     id="g3802" /><g
     id="g3804" /><g
     id="g3806" /><g
     id="g3808" /><g
     id="g3810" /><g
     id="g3812" /><g
     id="g3814" /><g
     id="g3816" /><g
     id="g3818" /><g
     id="g3820" /><g
     id="g3822" /></svg>