<?xml version="1.0" encoding="utf-8"?>
<!-- Generator: Adobe Illustrator 22.1.0, SVG Export Plug-In . SVG Version: 6.00 Build 0)  -->
<svg version="1.1" baseProfile="tiny" id="Layer_1" xmlns="http://www.w3.org/2000/svg" xmlns:xlink="http://www.w3.org/1999/xlink"
	 x="0px" y="0px" viewBox="0 0 120 120" xml:space="preserve">
<g>
	<path fill="#445796" d="M99.9,120H20.1C9,120,0,111,0,99.9l0-79.9C0,9,9,0,20.1,0l79.9,0C111,0,120,9,120,20.1v79.9
		C120,111,111,120,99.9,120z"/>
	<g id="XMLID_3_">
		<path id="XMLID_4_" fill="#FFFFFF" d="M48.9,97.3v-39h-6.6V46.7h6.6v-2c0-6.1,1.9-12.8,6.4-17c3.9-3.7,9.4-5.1,14-5.1
			c3.5,0,6.2,0.4,8.4,1l-0.6,12.1c-1.3-0.4-3-0.7-5.1-0.7c-5.2,0-7.3,4-7.3,9v2.6h10.1v11.6h-10v39H48.9z"/>
	</g>
</g>
</svg>
