<?xml version="1.0" encoding="utf-8"?>
<!-- Generator: Adobe Illustrator 22.1.0, SVG Export Plug-In . SVG Version: 6.00 Build 0)  -->
<svg version="1.1" baseProfile="tiny" id="Layer_1" xmlns="http://www.w3.org/2000/svg" xmlns:xlink="http://www.w3.org/1999/xlink"
	 x="0px" y="0px" viewBox="0 0 60 60" xml:space="preserve">
<g>
	<path id="XMLID_8_" fill="#FDD204" d="M60,30c0,16.6-13.4,30-30,30C13.4,60,0,46.6,0,30C0,13.5,13.4,0,30,0C46.6,0,60,13.5,60,30z"
		/>
	<path fill-rule="evenodd" fill="#FFFFFF" d="M29.4,42.4H31v2.8h-1.6V42.4L29.4,42.4z M14.2,34.2l1-0.1l-1.5-2.4l-1.5-2.4l-1.3,2.5
		l-1.3,2.5l1.1-0.1c4.7,19.9,35.6,21.5,38.5-3.6C42.9,53.4,18.3,50.6,14.2,34.2L14.2,34.2z M45.8,25.9c-4.1-16.4-28.7-19.3-35,3.5
		c2.9-25.1,33.8-23.6,38.5-3.6l1.1-0.1l-1.3,2.5l-1.3,2.5l-1.5-2.4l-1.5-2.4L45.8,25.9L45.8,25.9z M37.8,43.1l-0.3,0.2l-0.8-1.5
		l0.3-0.2L37.8,43.1L37.8,43.1z M22.7,43.1l0.8-1.5l0.3,0.2L23,43.3L22.7,43.1L22.7,43.1z M43.1,37.6L43,37.9l-1.5-0.8l0.2-0.3
		L43.1,37.6L43.1,37.6z M41.5,23.7l0.2,0.3l1.5-0.8L43,22.9L41.5,23.7L41.5,23.7z M45,29.6v1.6h-2.8v-1.6H45L45,29.6z M33.7,43.7
		l0.3-0.1l0.3,1l-0.3,0.1L33.7,43.7L33.7,43.7z M39.9,40.2l0.2-0.2l0.7,0.7L40.6,41L39.9,40.2L39.9,40.2z M43.5,34.1l0.1-0.3l1,0.3
		l-0.1,0.3L43.5,34.1L43.5,34.1z M43.6,27l1-0.3l-0.1-0.3l-1,0.3L43.6,27L43.6,27z M40.1,20.8l0.7-0.7l-0.2-0.2l-0.7,0.7L40.1,20.8
		L40.1,20.8z M26.5,44.7l-0.3-0.1l0.3-1l0.3,0.1L26.5,44.7L26.5,44.7z M29.4,15.6v2.8H31v-2.8H29.4L29.4,15.6z M23.8,19L23,17.5
		l-0.3,0.2l0.8,1.5L23.8,19L23.8,19z M36.6,19l0.3,0.2l0.8-1.5l-0.3-0.2L36.6,19L36.6,19z M19,23.7l-1.5-0.8l-0.2,0.3l1.5,0.8
		L19,23.7L19,23.7z M17.3,37.6l1.5-0.8l0.2,0.3l-1.5,0.8L17.3,37.6L17.3,37.6z M18.3,29.6v1.6h-2.8v-1.6H18.3L18.3,29.6z M26.3,16.2
		l0.3,1l0.3-0.1l-0.3-1L26.3,16.2L26.3,16.2z M19.7,20l0.7,0.7l0.2-0.2l-0.7-0.7L19.7,20L19.7,20z M15.9,26.7l1,0.3l0.1-0.3l-1-0.3
		L15.9,26.7L15.9,26.7z M16,34.4l-0.1-0.3l1-0.3l0.1,0.3L16,34.4L16,34.4z M19.9,41l-0.2-0.2l0.7-0.7l0.2,0.2L19.9,41L19.9,41z
		 M33.9,17.1l0.3-1l-0.3-0.1l-0.3,1L33.9,17.1L33.9,17.1z M29.4,32.2l-5,8.6L24,40.6l5-8.6c-0.4-0.4-0.7-0.9-0.7-1.5
		c0-0.9,0.6-1.6,1.4-1.9l0.6-5.9h0.1l0.6,5.9c0.3,0.1,0.6,0.3,0.8,0.5l8.8-4.3l0,0.1l-8.3,5.5c0,0,0,0.1,0,0.1c0,1.1-0.9,2-2,2
		C29.9,32.4,29.6,32.3,29.4,32.2L29.4,32.2z M30.2,28.9c0.8,0,1.5,0.7,1.5,1.5c0,0.8-0.7,1.5-1.5,1.5c-0.8,0-1.5-0.7-1.5-1.5
		C28.8,29.6,29.4,28.9,30.2,28.9z"/>
</g>
</svg>
