<?xml version="1.0" encoding="utf-8"?>
<!-- Generator: Adobe Illustrator 22.1.0, SVG Export Plug-In . SVG Version: 6.00 Build 0)  -->
<svg version="1.1" baseProfile="tiny" id="Layer_1" xmlns="http://www.w3.org/2000/svg" xmlns:xlink="http://www.w3.org/1999/xlink"
	 x="0px" y="0px" viewBox="0 0 60 60" xml:space="preserve">
<g id="XMLID_69_">
	<path id="XMLID_72_" fill="#FDD204" d="M60,30c0,16.6-13.4,30-30,30C13.4,60,0,46.6,0,30C0,13.5,13.4,0,30,0C46.6,0,60,13.5,60,30z
		"/>
	<path id="XMLID_70_" fill-rule="evenodd" fill="#F1F2F2" d="M45.4,39.2c0.7-0.7,0.6-2-0.2-2.6l-4.6-3.5c-0.6-0.5-1.5-0.5-2.2,0
		l-1.8,1.4c-0.8,0.6-1.8,0.7-2.7,0.2c-1.9-1.1-7.1-6.3-8.2-8.2c-0.5-0.8-0.4-1.9,0.2-2.7l1.4-1.8c0.5-0.6,0.5-1.5,0-2.2L24,15.4
		c-0.6-0.8-1.8-0.9-2.6-0.2l-3.6,3.6c-1.1,1-1.3,2.7-0.5,3.9l3.3,5.8c4.1,5.6,6.5,8.1,11.5,11.5l5.8,3.3c1.3,0.7,2.9,0.5,3.9-0.5
		L45.4,39.2z"/>
</g>
</svg>
