<?xml version="1.0" encoding="utf-8"?>
<!-- Generator: Adobe Illustrator 22.1.0, SVG Export Plug-In . SVG Version: 6.00 Build 0)  -->
<svg version="1.1" baseProfile="tiny" id="Layer_1" xmlns="http://www.w3.org/2000/svg" xmlns:xlink="http://www.w3.org/1999/xlink"
	 x="0px" y="0px" viewBox="0 0 60 60" xml:space="preserve">
<g id="XMLID_73_">
	<circle id="XMLID_77_" fill="#FDD204" cx="30" cy="30" r="30"/>
	<path id="XMLID_74_" fill="#FFFFFF" d="M29.5,10.6c-7,0.4-12.7,6.2-12.8,13.2c-0.1,2.8,0.7,5.4,2.1,7.6c2.8,4.3,11.4,18,11.4,18
		s8.7-13.9,11.4-17.9c1.4-2.1,2.2-4.7,2.2-7.4C43.7,16.5,37.3,10.2,29.5,10.6z M30.1,30.2c-3.3,0-6-2.7-6-6s2.7-6,6-6
		c3.3,0,6,2.7,6,6S33.4,30.2,30.1,30.2z"/>
</g>
</svg>
