<?xml version="1.0" encoding="utf-8"?>
<!-- Generator: Adobe Illustrator 22.1.0, SVG Export Plug-In . SVG Version: 6.00 Build 0)  -->
<svg version="1.1" baseProfile="tiny" id="Layer_1" xmlns="http://www.w3.org/2000/svg" xmlns:xlink="http://www.w3.org/1999/xlink"
	 x="0px" y="0px" viewBox="0 0 120 120" xml:space="preserve">
<g>
	<path fill="#C14D3E" d="M99.9,120H20.1C9,120,0,111,0,99.9l0-79.9C0,9,9,0,20.1,0l79.9,0C111,0,120,9,120,20.1v79.9
		C120,111,111,120,99.9,120z"/>
	<g>
		<path fill="#FFFFFF" d="M58.6,30.2c0.5,0.3,1.2,0.8,1.8,1.5c0.7,0.7,1.3,1.5,1.9,2.5c0.6,0.9,1.1,2,1.6,3.3
			c0.4,1.3,0.6,2.7,0.6,4.4c0,3.1-0.7,5.6-2.1,7.4c-0.6,0.9-1.3,1.7-2,2.5c-0.8,0.8-1.6,1.5-2.5,2.3c-0.5,0.5-1,1.1-1.4,1.8
			c-0.5,0.7-0.8,1.5-0.8,2.4c0,0.9,0.3,1.6,0.8,2.2c0.4,0.6,0.9,1.1,1.3,1.5l2.9,2.4c1.8,1.5,3.4,3.1,4.8,4.9c1.3,1.8,2,4.2,2,7.2
			c0,4.2-1.9,7.9-5.6,11.1c-3.8,3.3-9.4,5.1-16.6,5.2c-6.1-0.1-10.6-1.3-13.6-3.9c-3-2.4-4.5-5.2-4.5-8.5c0-1.6,0.5-3.4,1.5-5.3
			c0.9-2,2.7-3.7,5.2-5.2c2.8-1.6,5.7-2.7,8.8-3.2c3.1-0.4,5.6-0.7,7.6-0.8c-0.6-0.8-1.2-1.7-1.7-2.6c-0.6-0.9-0.9-2-0.9-3.3
			c0-0.8,0.1-1.4,0.3-1.9c0.2-0.5,0.4-1,0.5-1.5c-1,0.1-1.9,0.2-2.8,0.2c-4.6-0.1-8.1-1.5-10.5-4.3c-2.5-2.6-3.8-5.7-3.8-9.2
			c0-4.2,1.8-8.1,5.4-11.6c2.5-2,5-3.3,7.7-4c2.6-0.5,5.1-0.8,7.4-0.8h17.3L64,30.2L58.6,30.2L58.6,30.2L58.6,30.2z M62,80
			c0-2.2-0.7-4.1-2.1-5.7c-1.5-1.5-3.9-3.4-7.1-5.7c-0.6-0.1-1.2-0.1-1.9-0.1c-0.4-0.1-1.6,0-3.4,0.2c-1.8,0.3-3.6,0.7-5.5,1.2
			c-0.4,0.2-1.1,0.4-1.9,0.8c-0.8,0.4-1.6,0.9-2.4,1.6c-0.8,0.7-1.5,1.6-2,2.6c-0.6,1.1-0.9,2.4-0.9,4c0,3,1.4,5.5,4.1,7.5
			c2.6,2,6.2,3,10.7,3c4.1-0.1,7.2-1,9.3-2.7C60.9,84.9,62,82.7,62,80z M49.9,54.6c2.3-0.1,4.2-0.9,5.7-2.5c0.7-1.1,1.2-2.2,1.4-3.4
			c0.1-1.2,0.2-2.1,0.2-2.9c0-3.4-0.9-6.8-2.6-10.3c-0.8-1.7-1.9-3-3.2-4.1c-1.4-1-2.9-1.5-4.7-1.6c-2.3,0.1-4.3,1-5.8,2.8
			c-1.3,1.9-1.9,4.1-1.9,6.4c0,3.1,0.9,6.4,2.7,9.8c0.9,1.6,2,2.9,3.4,4C46.5,54.1,48.1,54.6,49.9,54.6z"/>
		<polygon fill="#FFFFFF" points="92.7,36.5 83.6,36.5 83.6,27.4 79.2,27.4 79.2,36.5 70.2,36.5 70.2,40.9 79.2,40.9 79.2,50 
			83.6,50 83.6,40.9 92.7,40.9 		"/>
	</g>
</g>
</svg>
