<?xml version="1.0" encoding="utf-8"?>
<!-- Generator: Adobe Illustrator 22.1.0, SVG Export Plug-In . SVG Version: 6.00 Build 0)  -->
<svg version="1.1" baseProfile="tiny" id="Layer_1" xmlns="http://www.w3.org/2000/svg" xmlns:xlink="http://www.w3.org/1999/xlink"
	 x="0px" y="0px" viewBox="0 0 120 120" xml:space="preserve">
<g>
	<path fill="#60453B" d="M99.9,120H20.1C9,120,0,111,0,99.9l0-79.9C0,9,9,0,20.1,0l79.9,0C111,0,120,9,120,20.1v79.9
		C120,111,111,120,99.9,120z"/>
	<g id="XMLID_1_">
		<path fill="#FFFFFF" d="M78.1,90.1H41.9c-6.6,0-12-5.4-12-12V41.9c0-6.6,5.4-12,12-12h36.1c6.6,0,12,5.4,12,12v36.1
			C90.1,84.7,84.7,90.1,78.1,90.1z M41.9,35.6c-3.5,0-6.4,2.9-6.4,6.4v36.1c0,3.5,2.9,6.4,6.4,6.4h36.1c3.5,0,6.4-2.9,6.4-6.4V41.9
			c0-3.5-2.9-6.4-6.4-6.4H41.9z"/>
		<path fill="#FFFFFF" d="M60,74.1c-7.8,0-14.1-6.3-14.1-14.1c0-7.8,6.3-14.1,14.1-14.1S74.1,52.2,74.1,60
			C74.1,67.8,67.8,74.1,60,74.1z M60,51.6c-4.7,0-8.5,3.8-8.5,8.5s3.8,8.4,8.5,8.4s8.5-3.8,8.5-8.4S64.7,51.6,60,51.6z"/>
		<path id="XMLID_2_" fill="#FFFFFF" d="M76.3,39.3c2.2,0,4.1,1.8,4.1,4.1c0,2.2-1.8,4.1-4.1,4.1c-2.2,0-4.1-1.8-4.1-4.1
			C72.2,41.1,74,39.3,76.3,39.3L76.3,39.3z"/>
	</g>
</g>
</svg>
