<svg width="511.999" height="511.999" xmlns="http://www.w3.org/2000/svg">

 <g>
  <title>background</title>
  <rect fill="none" id="canvas_background" height="402" width="582" y="-1" x="-1"/>
 </g>
 <g>
  <title>Layer 1</title>
  <g id="svg_1"/>
  <g id="svg_4">
   <g id="svg_5">
    <path id="svg_6" d="m501.916,226.776c-8.392,-10.712 -11.189,-24.778 -7.536,-37.886c5.853,-21.001 -3.377,-43.286 -22.366,-53.997c-11.852,-6.685 -19.82,-18.61 -21.461,-32.118c-2.628,-21.643 -19.685,-38.699 -41.328,-41.328c-13.509,-1.641 -25.433,-9.607 -32.118,-21.461c-10.711,-18.989 -32.996,-28.221 -53.997,-22.366c-13.108,3.654 -27.174,0.857 -37.886,-7.536c-17.163,-13.445 -41.284,-13.445 -58.447,0c-10.712,8.392 -24.778,11.189 -37.886,7.536c-21.001,-5.853 -43.286,3.377 -53.997,22.366c-6.685,11.852 -18.609,19.82 -32.118,21.461c-21.643,2.628 -38.699,19.685 -41.328,41.328c-1.641,13.509 -9.607,25.433 -21.461,32.118c-18.989,10.711 -28.221,32.996 -22.366,53.997c3.654,13.108 0.857,27.174 -7.536,37.886c-13.445,17.163 -13.445,41.284 0,58.447c8.392,10.712 11.189,24.778 7.536,37.886c-5.853,21.001 3.377,43.286 22.366,53.997c11.852,6.685 19.82,18.609 21.461,32.118c2.628,21.643 19.685,38.699 41.328,41.328c13.508,1.641 25.433,9.607 32.118,21.461c10.711,18.989 32.996,28.221 53.997,22.366c13.108,-3.654 27.174,-0.857 37.886,7.536c17.163,13.445 41.284,13.445 58.447,0c10.712,-8.392 24.778,-11.189 37.886,-7.536c21.001,5.853 43.286,-3.377 53.997,-22.366c6.685,-11.852 18.609,-19.82 32.118,-21.461c21.643,-2.629 38.699,-19.685 41.328,-41.328c1.641,-13.508 9.607,-25.433 21.461,-32.118c18.989,-10.711 28.221,-32.996 22.366,-53.997c-3.654,-13.109 -0.857,-27.174 7.536,-37.886c13.445,-17.163 13.445,-41.284 0,-58.447zm-245.917,220.232c-105.323,0 -191.009,-85.686 -191.009,-191.009s85.686,-191.009 191.009,-191.009s191.009,85.686 191.009,191.009s-85.686,191.009 -191.009,191.009z" fill="#e02417"/>
   </g>
  </g>
  <g id="svg_13">
   <g id="svg_14">
    <path id="svg_15" d="m255.999,99.719c-86.174,0 -156.28,70.107 -156.28,156.28s70.107,156.28 156.28,156.28s156.28,-70.107 156.28,-156.28s-70.106,-156.28 -156.28,-156.28z" fill="#e02417"/>
   </g>
  </g>
  <g id="svg_16"/>
  <g id="svg_17"/>
  <g id="svg_18"/>
  <g id="svg_19"/>
  <g id="svg_20"/>
  <g id="svg_21"/>
  <g id="svg_22"/>
  <g id="svg_23"/>
  <g id="svg_24"/>
  <g id="svg_25"/>
  <g id="svg_26"/>
  <g id="svg_27"/>
  <g id="svg_28"/>
  <g id="svg_29"/>
  <g id="svg_30"/>
 </g>
</svg>