<?xml version="1.0" encoding="utf-8"?>
<!-- Generator: Adobe Illustrator 22.1.0, SVG Export Plug-In . SVG Version: 6.00 Build 0)  -->
<svg version="1.1" baseProfile="tiny" id="Layer_1" xmlns="http://www.w3.org/2000/svg" xmlns:xlink="http://www.w3.org/1999/xlink"
	 x="0px" y="0px" viewBox="0 0 250 62.3" xml:space="preserve">
<g>
	<g>
		<g>
			<g>
				<path fill="#FFFFFF" d="M66.8,44.2l0-3c-1.8,2.5-4.6,3.8-8.2,3.8c-3.7,0.1-6.8-1.2-9.4-3.7c-2.5-2.5-3.8-5.6-3.9-9.3
					c-0.1-3.6,1.2-6.7,3.8-9.4c2.6-2.6,5.7-4,9.3-4c3.7-0.1,6.4,1.1,8.1,3.6l0-3l5.3-0.1l0.4,25L66.8,44.2z M51,32
					c0,2.2,0.8,4.1,2.4,5.7c1.6,1.6,3.5,2.3,5.7,2.3s4.1-0.9,5.5-2.5c1.5-1.6,2.2-3.5,2.2-5.7c0-2.2-0.8-4.1-2.4-5.7
					c-1.5-1.6-3.4-2.4-5.6-2.3s-4.1,0.9-5.6,2.5C51.7,27.8,50.9,29.7,51,32z"/>
				<path fill="#FFFFFF" d="M78.2,13.9c0-0.8,0.3-1.5,0.8-2.1c0.6-0.6,1.3-0.9,2.1-0.9c0.8,0,1.5,0.3,2.1,0.8
					c0.6,0.6,0.9,1.3,0.9,2.1c0,0.8-0.3,1.5-0.8,2.1c-0.6,0.6-1.3,0.9-2.1,0.9c-0.8,0-1.5-0.3-2.1-0.8
					C78.6,15.5,78.3,14.8,78.2,13.9z M79.1,44l-0.4-25L84,19l0.4,25L79.1,44z"/>
				<path fill="#FFFFFF" d="M88.7,24l-0.1-5.1l3,0l-0.1-6.6l5.3-1.6l0.1,8.1l4.3-0.1l0.1,5.1l-4.3,0.1l0.2,9.9c0,2.4,0.8,4,2.3,4.8
					l2.9,1.6l-2.3,4.3c-3.1-1.4-5.1-2.7-6.2-3.8c-1.3-1.4-2-3.3-2.1-5.8l-0.2-10.8L88.7,24z"/>
				<path fill="#FFFFFF" d="M106.6,43.6l-0.5-32.4l5.3-0.1l0.2,10.6c1.6-2.6,4.2-3.9,7.7-3.9c2.9,0,5.3,1,7.2,3.1
					c1.8,2,2.7,4.5,2.8,7.3l0.2,15.1l-5.3,0.1l-0.2-13.9c-0.1-4.3-2.1-6.4-6.1-6.3c-1.9,0-3.4,0.6-4.5,1.8c-1.1,1.2-1.6,2.7-1.6,4.6
					l0.2,14L106.6,43.6z"/>
				<path fill="#FFFFFF" d="M136.1,32.6l-0.2-14.5l5.3-0.1l0.2,14c0,1.8,0.6,3.2,1.8,4.4c1.2,1.2,2.6,1.8,4.4,1.8
					c1.8,0,3.2-0.7,4.3-1.9c1.1-1.2,1.7-2.7,1.7-4.5l-0.2-14l5.3-0.1l0.2,14.5c0,3.3-1,6-3.1,8.1c-2.1,2.1-4.8,3.2-8.1,3.3
					s-6-1-8.2-3C137.3,38.6,136.1,35.9,136.1,32.6z"/>
				<path fill="#FFFFFF" d="M165.9,42.7l-0.5-32.4l5.3-0.1l0.2,10.6c1.6-2.6,4.2-3.9,7.7-3.9c2.9,0,5.3,1,7.2,3.1
					c1.8,2,2.7,4.5,2.8,7.3l0.2,15.1l-5.3,0.1l-0.2-13.9c-0.1-4.3-2.1-6.4-6.1-6.3c-1.9,0-3.4,0.6-4.5,1.8c-1.1,1.2-1.6,2.7-1.6,4.6
					l0.2,14L165.9,42.7z"/>
				<path fill="#FFFFFF" d="M215.1,42l0-3c-1.8,2.5-4.6,3.8-8.2,3.8c-3.7,0.1-6.8-1.2-9.4-3.7c-2.5-2.5-3.8-5.6-3.9-9.3
					c-0.1-3.6,1.2-6.7,3.8-9.4c2.6-2.6,5.7-4,9.3-4c3.7-0.1,6.4,1.1,8.1,3.6l0-3l5.3-0.1l0.4,25L215.1,42z M199.2,29.7
					c0,2.2,0.8,4.1,2.4,5.7c1.6,1.6,3.5,2.3,5.7,2.3c2.2,0,4.1-0.9,5.5-2.5c1.5-1.6,2.2-3.5,2.2-5.7c0-2.2-0.8-4.1-2.4-5.7
					c-1.5-1.6-3.4-2.4-5.6-2.3c-2.2,0-4.1,0.9-5.6,2.5C199.9,25.6,199.2,27.5,199.2,29.7z"/>
				<path fill="#FFFFFF" d="M227,31.3l-0.2-14.5l5.3-0.1l0.2,14.7c0.1,4,2.1,5.9,6,5.8c4.2-0.1,6.2-2.2,6.2-6.6l-0.2-14.2l5.3-0.1
					l0.4,24.2c0.1,3.5-1.2,6.3-3.9,8.4c-2.2,1.8-4.6,2.7-7.4,2.7c-2.4,0-4.3-0.3-5.9-1c-1.6-0.7-3.1-2-4.8-3.7l4.5-2.9
					c1.9,1.7,3.8,2.6,5.8,2.5c2,0,3.6-0.7,4.8-1.9c1.2-1.2,1.8-2.8,1.8-4.8l0-1.3h-0.1c-2,2.3-4.5,3.5-7.5,3.5c-3.1,0-5.6-1-7.5-3.2
					C228,37,227,34.4,227,31.3z"/>
			</g>
			<g>
				<path fill="#FFFFFF" d="M172.8,60.7c0-0.4,0.2-0.8,0.5-1.1s0.7-0.5,1.1-0.5c0.4,0,0.8,0.2,1.1,0.5c0.3,0.3,0.5,0.7,0.5,1.1
					c0,0.4-0.2,0.8-0.5,1.1c-0.3,0.3-0.7,0.5-1.1,0.5c-0.4,0-0.8-0.2-1.1-0.5C173,61.5,172.8,61.1,172.8,60.7z"/>
				<path fill="#FFFFFF" d="M191.2,52.1l-2.4,1.4c-0.8-1.3-1.9-1.9-3.3-1.9c-1.2,0-2.1,0.4-2.9,1.2c-0.8,0.8-1.2,1.7-1.2,2.9
					c0,1.2,0.4,2.1,1.2,2.9c0.8,0.8,1.7,1.2,2.9,1.2c1.4,0,2.5-0.6,3.3-1.9l2.4,1.4c-0.6,0.9-1.4,1.7-2.4,2.2
					c-1,0.5-2.1,0.8-3.2,0.8c-1.9,0-3.6-0.6-4.9-1.9c-1.3-1.2-2-2.8-2-4.7c0-1.9,0.7-3.5,2-4.7c1.3-1.2,3-1.8,4.9-1.8
					C187.9,49.1,189.8,50.1,191.2,52.1z"/>
				<path fill="#FFFFFF" d="M192.5,55.7c0-1.9,0.7-3.5,2-4.7c1.3-1.2,3-1.8,4.9-1.8c1.9,0,3.6,0.6,4.9,1.8c1.3,1.2,2,2.8,2,4.7
					c0,1.9-0.7,3.5-2,4.7c-1.3,1.2-3,1.9-4.9,1.9c-1.9,0-3.6-0.6-4.9-1.9C193.2,59.1,192.5,57.6,192.5,55.7z M195.4,55.7
					c0,1.2,0.4,2.1,1.2,2.9c0.8,0.8,1.7,1.2,2.9,1.2c1.2,0,2.1-0.4,2.9-1.2c0.8-0.8,1.2-1.7,1.2-2.9c0-1.2-0.4-2.1-1.2-2.9
					c-0.8-0.8-1.7-1.2-2.9-1.2c-1.2,0-2.1,0.4-2.9,1.2C195.8,53.5,195.4,54.5,195.4,55.7z"/>
				<path fill="#FFFFFF" d="M208.8,61.9v-7.8c0-1.4,0.4-2.6,1.2-3.6c0.8-1,1.9-1.4,3.3-1.4c1.9,0,3.2,0.7,3.7,2.2h0.1
					c0.6-1.5,1.8-2.2,3.7-2.2c1.4,0,2.5,0.5,3.3,1.4c0.8,1,1.2,2.2,1.2,3.6v7.8h-2.7v-7.8c0-0.7-0.2-1.2-0.5-1.7
					c-0.4-0.5-0.9-0.7-1.6-0.7c-1.5,0-2.3,0.9-2.3,2.7v7.4h-2.7v-7.4c0-1.8-0.8-2.7-2.3-2.7c-0.6,0-1.2,0.2-1.5,0.7
					c-0.4,0.5-0.6,1-0.6,1.7v7.8H208.8z"/>
			</g>
		</g>
		<path fill="#FDD204" d="M37.8,49.4c-2.4,1.2-4.9,0.6-7.4-1.7L1.1,20.4c-0.7-0.6-1-1.3-1.1-2c0-0.7,0.3-1.4,0.9-2.1
			c0.3-0.4,0.7-0.6,1-0.8c0.7-0.3,1.8-0.5,3,0.6l30.1,28.2c0.2,0.2,0.2,0.1,0.3,0.1c0.1,0,0.1-0.1,0.1-0.3L31.9,3.1
			c-0.1-1.7,0.7-2.4,1.3-2.7C33.6,0.2,34,0.1,34.5,0c0.9-0.1,1.7,0.1,2.2,0.6c0.5,0.5,0.8,1.2,0.9,2.1L41,42.6
			C41.2,46,40.2,48.3,37.8,49.4z"/>
	</g>
</g>
</svg>
